<svg xmlns="http://www.w3.org/2000/svg" xml:space="preserve" width="512px" height="512px" version="1.1" style="shape-rendering:geometricPrecision; text-rendering:geometricPrecision; image-rendering:optimizeQuality; fill-rule:evenodd; clip-rule:evenodd" viewBox="0 0 512 512" xmlns:xlink="http://www.w3.org/1999/xlink">
 <defs>
  <style type="text/css">
   
    .fil2 {fill:#00AB94}
    .fil0 {fill:#4D4D4D}
    .fil4 {fill:#99A4AC}
    .fil1 {fill:#D9F2F2}
    .fil3 {fill:#F3A766}
   
  </style>
 </defs>
 <g id="Layer_x0020_1">
  <metadata id="CorelCorpID_0Corel-Layer"></metadata>
  <path class="fil0" d="M191 151c-3,-6 -4,-12 -4,-17 -7,2 -9,1 -16,-1 0,5 -1,11 -4,18 8,4 17,4 24,0zm259 361l-388 0c-4,0 -7,-3 -7,-7l0 -498c0,-4 3,-7 7,-7l273 0c3,0 5,1 6,2l114 114c1,1 2,3 2,5l0 384c0,4 -3,7 -7,7zm-121 -498l-260 0 0 484 374 0 0 -370 -107 0c-4,0 -7,-3 -7,-7l0 -107zm14 100l90 0 -90 -90 0 90zm47 176l-275 0c-9,0 -9,-14 0,-14l275 0c9,0 9,14 0,14zm0 51l-275 0c-9,0 -9,-14 0,-14l275 0c9,0 9,14 0,14zm0 51l-275 0c-9,0 -9,-14 0,-14l275 0c9,0 9,14 0,14zm0 50l-275 0c-9,0 -9,-14 0,-14l275 0c9,0 9,14 0,14zm-236 -295c6,-14 1,-21 1,-22l0 1 0 -1c-7,-5 -10,-12 -12,-15 -7,-7 -7,-17 -5,-23 -2,-13 0,-23 6,-31 16,-22 56,-21 71,0 7,8 8,18 6,31 2,6 2,17 -5,23 -2,3 -5,10 -13,16l0 0 0 0c-1,1 -7,8 2,21 26,4 46,26 46,51l0 45c0,4 -3,7 -7,7l-129 0c-4,0 -7,-3 -7,-7l0 -45c0,-25 19,-46 46,-51zm-32 89l115 0 0 -38c0,-18 -15,-34 -34,-38 -14,10 -32,11 -47,0 -19,4 -34,20 -34,38l0 38zm57 -115c24,-4 22,-19 28,-22 4,-2 -1,-10 0,-13 8,-37 -40,-39 -52,-22 -8,10 -2,20 -3,25 -4,10 2,8 4,14 0,1 4,14 23,18z" id="id_245"></path>
  <path class="fil1" d="M203 126c-1,1 -6,8 2,21 26,4 46,26 46,51l0 45c0,4 -3,7 -7,7l-129 0c-4,0 -7,-3 -7,-7l0 -45c0,-25 19,-46 46,-51 6,-14 1,-21 1,-22l0 1 0 -1c-7,-5 -10,-12 -12,-15 -7,-7 -7,-17 -5,-23 -2,-13 0,-23 6,-31 16,-22 56,-21 71,0 7,8 8,18 6,31 2,6 2,17 -5,23 -2,3 -5,10 -13,16l0 0zm-88 150l275 0c9,0 9,14 0,14l-275 0c-9,0 -9,-14 0,-14zm0 51l275 0c9,0 9,14 0,14l-275 0c-9,0 -9,-14 0,-14zm0 51l275 0c9,0 9,14 0,14l-275 0c-9,0 -9,-14 0,-14zm0 50l275 0c9,0 9,14 0,14l-275 0c-9,0 -9,-14 0,-14zm-46 70l374 0 0 -370 -107 0c-4,0 -7,-3 -7,-7l0 -107 -260 0 0 484z" id="id_246"></path>
  <path class="fil2" d="M237 198c0,-18 -15,-34 -34,-38 -14,10 -32,11 -47,0 -19,4 -34,20 -34,38l0 38 115 0 0 -38z" id="id_247"></path>
  <path class="fil3" d="M167 151c8,4 17,4 24,0 -3,-6 -4,-12 -4,-17 -7,2 -9,1 -16,-1 0,5 -1,11 -4,18z" id="id_248"></path>
  <path class="fil3" d="M156 103c0,1 4,14 23,18 24,-4 22,-19 28,-22 4,-2 -1,-10 0,-13 8,-37 -40,-39 -52,-22 -8,10 -2,20 -3,25 -4,10 2,8 4,14z" id="id_249"></path>
  <polygon class="fil4" points="343,24 343,114 433,114 " id="id_250"></polygon>
 </g>
</svg>